<svg width="190" height="91" viewBox="0 0 190 91" fill="none" xmlns="http://www.w3.org/2000/svg">
<path fill-rule="evenodd" clip-rule="evenodd" d="M7.88395 43.1878C6.25561 46.7791 4.53507 54.1705 2.72211 65.3615C75.0851 128.839 126.588 47.0352 187.307 65.1271C190.554 63.5704 190.648 58.0633 187.592 48.6055C124.659 34.8085 78.0476 113.786 7.88395 43.1878Z" fill="#E6E6E6"/>
<path d="M93.6031 1.05249C94.3289 1.08068 95.0497 1.11778 95.7649 1.16377C101.026 1.50123 106.013 2.3103 110.603 3.53229C121.696 4.72143 131.288 7.75596 138.224 12.195C145.308 16.7287 149.709 22.7624 150.31 29.879C151.123 39.5191 144.7 49.01 133.659 56.5615C123.034 63.8275 108.024 69.3953 91.1503 71.5419C88.0051 71.9421 84.868 72.2096 81.762 72.3519C78.6257 72.4953 75.5515 72.5047 72.56 72.3879C71.9801 72.3651 71.466 72.0748 71.1114 71.6284C70.3856 71.6 69.6649 71.5629 68.9495 71.5171C63.6885 71.1796 58.7007 70.3706 54.1118 69.1484C43.018 67.9592 33.4267 64.9249 26.4905 60.4857C19.4063 55.9521 15.0049 49.9182 14.4043 42.8019C13.591 33.1615 20.014 23.6707 31.0559 16.1194C41.6809 8.85336 56.6902 3.28557 73.5641 1.13897C76.7097 0.738776 79.8462 0.471062 82.9525 0.329044C86.0888 0.185542 89.163 0.175999 92.1549 0.293005C92.7347 0.315685 93.2484 0.605871 93.6031 1.05249Z" fill="#E6E6E6"/>
<path fill-rule="evenodd" clip-rule="evenodd" d="M5.97458 41.2901C4.34624 44.8815 2.6257 52.2728 0.812744 63.4638C73.1755 126.94 124.678 45.1373 185.398 63.2294C188.645 61.6727 188.739 56.1656 185.683 46.7078C122.749 32.9108 76.138 111.889 5.97458 41.2901Z" fill="white"/>
<path d="M89.7901 1.05249C90.5158 1.08068 91.2367 1.11778 91.9519 1.16377C97.2131 1.50123 102.2 2.3103 106.79 3.53229C117.883 4.72143 127.475 7.75596 134.411 12.195C141.495 16.7287 145.896 22.7624 146.497 29.879C147.31 39.5191 140.887 49.01 129.846 56.5615C119.221 63.8275 104.211 69.3953 87.3372 71.5419C84.192 71.9421 81.0552 72.2096 77.9488 72.3519C74.8126 72.4953 71.7384 72.5047 68.7469 72.3879C68.167 72.3651 67.6529 72.0748 67.2983 71.6284C66.5725 71.6 65.8518 71.5629 65.1364 71.5171C59.8754 71.1796 54.8876 70.3706 50.2987 69.1484C39.2049 67.9592 29.6136 64.9249 22.6774 60.4857C15.5932 55.9521 11.1917 49.9182 10.5912 42.8019C9.77792 33.1615 16.2009 23.6707 27.2428 16.1194C37.8678 8.85336 52.8768 3.28557 69.751 1.13897C72.8966 0.738776 76.033 0.471062 79.1394 0.329044C82.2757 0.185542 85.35 0.175999 88.341 0.293005C88.9216 0.315685 89.4354 0.605871 89.7901 1.05249Z" fill="#FEFEFE"/>
<path fill-rule="evenodd" clip-rule="evenodd" d="M77.8878 7.95691C105.54 5.0379 128.952 15.2897 130.18 30.8554C131.408 46.421 109.987 61.4058 82.3344 64.3248C54.6822 67.244 31.2699 56.992 30.0419 41.4264C28.814 25.8607 50.2351 10.8762 77.8878 7.95691Z" fill="#ED3237"/>
<path fill-rule="evenodd" clip-rule="evenodd" d="M77.8133 7.1847C84.0355 6.52781 90.3626 6.4941 96.5812 7.21395C101.992 7.83989 107.448 9.04938 112.55 11.0605C120 13.9975 128.336 19.4326 130.473 28.0453C130.696 28.9457 130.846 29.8644 130.918 30.7913C130.974 31.4916 130.985 32.1958 130.954 32.8979C130.57 41.5012 123.936 48.4749 117.499 52.9779C112.715 56.3243 107.33 58.8812 101.884 60.7887C95.5912 62.9926 89.0065 64.4005 82.4086 65.097C76.1865 65.7539 69.8597 65.7876 63.6408 65.068C58.2305 64.4418 52.774 63.2326 47.6724 61.2212C40.2221 58.2842 31.8863 52.8491 29.7497 44.2364C29.5263 43.336 29.3769 42.4175 29.3037 41.4904C29.2486 40.7901 29.2367 40.0861 29.2681 39.3841C29.6522 30.7807 36.2861 23.807 42.7233 19.3038C47.507 15.9574 52.8925 13.4005 58.3384 11.4931C64.6308 9.28928 71.2154 7.88122 77.8133 7.1847Z" stroke="#201E1E" stroke-width="0.0762" stroke-miterlimit="22.9256"/>
<path fill-rule="evenodd" clip-rule="evenodd" d="M31.8516 34.2183C33.9771 28.5903 38.7992 23.9155 43.5461 20.5949C48.2195 17.3256 53.4879 14.8285 58.8081 12.9653C64.9963 10.798 71.4732 9.41422 77.962 8.72932C84.0893 8.08219 90.2949 8.04806 96.4189 8.75664C101.705 9.36864 107.043 10.548 112.028 12.5133C118.42 15.0332 125.663 19.5244 128.389 26.4153C125.834 26.2256 123.278 26.0465 120.721 25.8813C110.776 25.2395 101.016 24.8217 91.5947 24.8112C87.5925 24.8067 83.6514 24.8756 79.7826 25.0317C61.8666 25.7559 45.5055 28.3546 31.8516 34.2183Z" fill="#AD3335"/>
<path fill-rule="evenodd" clip-rule="evenodd" d="M40.7864 55.9877C43.1856 57.5557 45.7575 58.8079 48.194 59.7684C53.1795 61.7337 58.5168 62.9133 63.8035 63.5251C69.919 64.2328 76.1413 64.1985 82.2602 63.5526C88.7488 62.8678 95.2259 61.4838 101.414 59.3165C106.734 57.4532 112.003 54.9562 116.676 51.6871C121.726 48.154 127.074 42.9267 128.865 36.5642C99.0389 39.8853 67.6467 49.8423 40.7864 55.9877Z" fill="#AD3335"/>
<path fill-rule="evenodd" clip-rule="evenodd" d="M82.8131 9.97232C89.9499 9.11113 97.2245 8.91142 104.387 9.54731C110.445 10.0853 116.631 11.235 122.388 13.321C129.374 15.8529 138.032 20.7375 139.983 28.8984C140.142 29.5662 140.253 30.2457 140.314 30.9313C140.355 31.3965 140.374 31.8639 140.369 32.3311C140.332 36.2567 138.692 39.8604 136.442 42.921C133.633 46.7439 129.769 49.9112 125.875 52.4372C120.629 55.8398 114.785 58.4452 108.923 60.4274C102.054 62.7502 94.9005 64.2973 87.7327 65.1621C82.1876 65.8313 76.5808 66.0954 71.0011 65.8885L70.7856 65.8804L70.7879 65.4285L71.0036 65.4231C74.3662 65.3389 77.7256 65.0981 81.0683 64.7083C88.1478 63.8831 95.2169 62.3978 102.014 60.1563C107.788 58.2524 113.556 55.7457 118.743 52.4566C122.543 50.0467 126.343 47.0109 129.105 43.3337C131.266 40.4577 132.875 37.048 132.916 33.3233C132.921 32.8786 132.904 32.4337 132.863 31.9909C132.81 31.3993 132.715 30.8121 132.582 30.2343C130.756 22.3296 122.089 17.6167 115.368 15.2175C109.685 13.1883 103.583 12.0684 97.6094 11.5383C90.5313 10.9098 83.3423 11.0911 76.2852 11.9137C73.8803 12.1942 71.4834 12.5522 69.0996 12.9871L68.8876 13.0259L68.8 12.5846L69.0091 12.5316C73.5522 11.3794 78.1699 10.5325 82.8131 9.97232Z" fill="#201E1E"/>
<path fill-rule="evenodd" clip-rule="evenodd" d="M83.061 9.97078C113.337 6.31774 138.971 15.6074 140.315 30.7199C141.659 45.8326 118.205 61.0451 87.9292 64.6981C82.1477 65.3957 76.5371 65.6197 71.2311 65.4231C74.5134 65.341 77.8837 65.107 81.315 64.707C111.364 61.2042 134.641 46.4426 133.307 31.7361C131.973 17.0293 106.531 7.94672 76.4828 11.4495C74.0346 11.7348 71.6324 12.0962 69.2835 12.525C73.6583 11.4156 78.274 10.5484 83.061 9.97078Z" fill="url(#paint0_linear)"/>
<path fill-rule="evenodd" clip-rule="evenodd" d="M77.4091 62.7743C70.2719 63.6356 62.9975 63.8354 55.8353 63.1993C49.7771 62.6614 43.5907 61.5117 37.8345 59.4256C30.8485 56.8938 22.1903 52.0091 20.2397 43.8482C20.0801 43.1805 19.9693 42.5009 19.9082 41.8154C19.8669 41.3501 19.8485 40.8827 19.8529 40.4155C19.8905 36.4899 21.5304 32.8862 23.7798 29.8257C26.5895 26.0029 30.453 22.8354 34.3475 20.3094C39.5935 16.9068 45.4372 14.3015 51.2996 12.3193C58.1686 9.99654 65.3219 8.44938 72.4893 7.58453C78.035 6.91534 83.6416 6.65123 89.2209 6.85811L89.437 6.86617L89.4345 7.3183L89.2185 7.32359C85.8564 7.40774 82.4967 7.64876 79.1538 8.03836C72.0745 8.86355 65.0049 10.3488 58.2078 12.5903C52.434 14.4942 46.6664 17.001 41.4798 20.2901C37.6798 22.7 33.879 25.7357 31.1164 29.413C28.9558 32.2889 27.3474 35.6989 27.3061 39.4233C27.301 39.868 27.3186 40.313 27.3589 40.7557C27.4125 41.3476 27.5066 41.9346 27.6399 42.5124C29.4667 50.417 38.1332 55.1302 44.8534 57.5291C50.5374 59.5583 56.6392 60.6782 62.6125 61.2083C69.6912 61.8368 76.8799 61.6556 83.9368 60.833C86.3415 60.5525 88.739 60.1947 91.1225 59.7595L91.3345 59.7208L91.4218 60.1622L91.213 60.2152C86.6702 61.3673 82.0523 62.2141 77.4091 62.7743Z" fill="#201E1E"/>
<path d="M53.3603 25.6619H54.316L56.2104 20.7731H55.0965L53.8423 24.3386L52.5972 20.7731H51.4568L53.3603 25.6619ZM60.7802 25.625V22.7486C60.7802 21.4531 60.1134 20.6996 58.7456 20.6996C57.9912 20.6996 57.4911 20.8651 56.9826 21.1039L57.272 21.9951C57.6931 21.8115 58.0789 21.692 58.5963 21.692C59.3329 21.692 59.7365 22.0595 59.7365 22.7304V22.8224C59.3768 22.7026 59.0173 22.6202 58.4558 22.6202C57.3771 22.6202 56.5788 23.1348 56.5788 24.2102V24.2284C56.5788 25.2024 57.3506 25.7262 58.2277 25.7262C58.9295 25.7262 59.4119 25.4231 59.7274 25.0279V25.625H60.7802ZM59.7539 23.87C59.7539 24.4764 59.2276 24.8898 58.5261 24.8898C58.0263 24.8898 57.6313 24.6326 57.6313 24.1731V24.1548C57.6313 23.686 58.0263 23.4015 58.6927 23.4015C59.1048 23.4015 59.4819 23.4839 59.7539 23.5942V23.87ZM62.0429 25.625H63.104V23.778C63.104 22.4915 63.7531 21.8575 64.6828 21.8575H64.7443V20.6809C63.9284 20.6444 63.3938 21.1404 63.104 21.8666V20.7731H62.0429V25.625ZM67.63 25.7353C68.4803 25.7353 69.0856 25.3771 69.5241 24.8255L68.9015 24.2466C68.5332 24.6235 68.1645 24.8255 67.6473 24.8255C66.9629 24.8255 66.4283 24.3846 66.3142 23.5942H69.717C69.7261 23.4839 69.7348 23.3828 69.7348 23.2815C69.7348 21.8849 68.9891 20.6718 67.5155 20.6718C66.1911 20.6718 65.2528 21.8115 65.2528 23.1991V23.2173C65.2528 24.7151 66.2877 25.7353 67.63 25.7353ZM66.3056 22.859C66.4018 22.1056 66.8582 21.5817 67.5068 21.5817C68.2086 21.5817 68.6118 22.1424 68.6824 22.859H66.3056ZM70.822 20.0287H71.9624V18.972H70.822V20.0287ZM70.5765 27.1228C71.445 27.1228 71.927 26.6726 71.927 25.6893V20.7731H70.8659V25.625C70.8659 26.0475 70.6645 26.2131 70.3661 26.2131C70.2693 26.2131 70.1734 26.2039 70.068 26.1857V27.0768C70.2346 27.1046 70.3747 27.1228 70.5765 27.1228ZM77.1981 25.625V22.7486C77.1981 21.4531 76.5314 20.6996 75.1635 20.6996C74.4091 20.6996 73.9093 20.8651 73.4006 21.1039L73.6899 21.9951C74.1111 21.8115 74.4969 21.692 75.0143 21.692C75.7509 21.692 76.1547 22.0595 76.1547 22.7304V22.8224C75.7948 22.7026 75.4355 22.6202 74.8737 22.6202C73.7953 22.6202 72.997 23.1348 72.997 24.2102V24.2284C72.997 25.2024 73.7688 25.7262 74.6459 25.7262C75.3475 25.7262 75.8299 25.4231 76.1456 25.0279V25.625H77.1981ZM76.1721 23.87C76.1721 24.4764 75.6455 24.8898 74.9441 24.8898C74.4443 24.8898 74.0494 24.6326 74.0494 24.1731V24.1548C74.0494 23.686 74.4443 23.4015 75.1109 23.4015C75.5228 23.4015 75.9001 23.4839 76.1721 23.5942V23.87ZM74.1986 20.2493C74.3303 19.9371 74.4265 19.7898 74.6811 19.7898C74.9969 19.7898 75.4616 20.1571 75.944 20.1571C76.4788 20.1571 76.7331 19.7529 76.9264 19.0089L76.3387 18.8249C76.2072 19.1376 76.1106 19.2843 75.8562 19.2843C75.5404 19.2843 75.0755 18.9169 74.5931 18.9169C74.0585 18.9169 73.8039 19.3211 73.6108 20.0564L74.1986 20.2493ZM80.6624 25.7353C82.0922 25.7353 83.1442 24.5866 83.1442 23.2082V23.1899C83.1442 21.8024 82.1004 20.6718 80.6797 20.6718C79.2591 20.6718 78.2063 21.8206 78.2063 23.2082V23.2268C78.2063 24.6048 79.2501 25.7353 80.6624 25.7353ZM80.6797 24.7704C79.8552 24.7704 79.2678 24.0538 79.2678 23.2082V23.1899C79.2678 22.3444 79.8118 21.646 80.6624 21.646C81.4954 21.646 82.0833 22.3535 82.0833 23.2082V23.2268C82.0833 24.0628 81.5393 24.7704 80.6797 24.7704Z" fill="#FFF212"/>
<path d="M54.5745 48.6928C55.0605 48.6928 55.39 48.4951 55.6551 48.2254L55.3295 47.8803C55.1086 48.0824 54.8996 48.2172 54.5825 48.2172C54.1364 48.2172 53.819 47.9014 53.819 47.4174C53.819 46.7268 54.3454 46.1208 54.948 46.1208C55.3176 46.1208 55.5226 46.2976 55.6911 46.5672L56.101 46.2766C55.892 45.8934 55.5345 45.6452 55.0043 45.6452C54.0643 45.6452 53.3048 46.4911 53.3048 47.4384C53.3048 48.2129 53.8513 48.6928 54.5745 48.6928ZM57.0731 48.6928C57.7481 48.6928 58.3104 48.0698 58.3104 47.3922C58.3104 46.8029 57.9208 46.3733 57.3142 46.3733C56.6312 46.3733 56.0769 47.0007 56.0769 47.6783C56.0769 48.2633 56.4665 48.6928 57.0731 48.6928ZM57.1011 48.2509C56.7798 48.2509 56.5592 48.0362 56.5592 47.6616C56.5592 47.2659 56.8684 46.8154 57.2862 46.8154C57.6075 46.8154 57.8287 47.0301 57.8287 47.4047C57.8287 47.8087 57.5111 48.2509 57.1011 48.2509ZM58.5114 48.6422H58.9976L59.319 47.3922C59.4033 47.0638 59.6161 46.8366 59.8853 46.8366C60.1065 46.8366 60.2308 46.9625 60.2308 47.1857C60.2308 47.2489 60.2187 47.3373 60.2027 47.4089L59.8853 48.6422H60.3716L60.6929 47.3922C60.7732 47.0638 60.9901 46.8366 61.2553 46.8366C61.4762 46.8366 61.6008 46.9625 61.6008 47.1857C61.6008 47.2489 61.5889 47.3373 61.5728 47.4089L61.2553 48.6422H61.7414L62.0508 47.4299C62.083 47.2996 62.1191 47.1564 62.1191 47.0386C62.1191 46.6344 61.87 46.3733 61.4885 46.3733C61.1467 46.3733 60.8775 46.5543 60.6929 46.8197C60.6204 46.5672 60.4277 46.3733 60.1144 46.3733C59.8453 46.3733 59.6602 46.525 59.4917 46.7058L59.564 46.4197H59.0779L58.5114 48.6422ZM62.1553 49.3156H62.6415L62.9145 48.2465C63.0431 48.4951 63.256 48.6886 63.6298 48.6886C64.2405 48.6886 64.8109 48.1118 64.8109 47.3246C64.8109 46.7353 64.4573 46.3733 63.9833 46.3733C63.706 46.3733 63.4973 46.5123 63.3042 46.7143L63.3805 46.4197H62.8944L62.1553 49.3156ZM63.5733 48.2549C63.256 48.2549 63.0392 48.0151 63.0392 47.6908C63.0392 47.2194 63.4127 46.8112 63.8025 46.8112C64.1037 46.8112 64.3046 47.0217 64.3046 47.3628C64.3046 47.8551 63.9712 48.2549 63.5733 48.2549ZM65.0118 48.6422H65.498L65.7109 47.8172C65.8674 47.2027 66.2372 46.9163 66.6628 46.9163H66.6912L66.8277 46.3777C66.45 46.3522 66.1729 46.5672 65.9398 46.9208L66.0644 46.4197H65.5784L65.0118 48.6422ZM67.2655 47.7163H68.8081C68.8645 47.5563 68.9005 47.3922 68.9005 47.2364C68.9005 46.7522 68.5953 46.3733 68.0529 46.3733C67.3137 46.3733 66.8033 47.0638 66.8033 47.7203C66.8033 48.3181 67.1772 48.6928 67.7675 48.6928C68.1332 48.6928 68.3903 48.5582 68.5911 48.3855L68.3581 48.0614C68.1773 48.2045 68.0206 48.2761 67.8159 48.2761C67.4583 48.2761 67.2695 48.0486 67.2655 47.7163ZM67.3178 47.3668C67.4263 47.0342 67.6875 46.79 68.0168 46.79C68.31 46.79 68.4386 46.9837 68.4386 47.2152C68.4386 47.2784 68.4306 47.3331 68.4183 47.3668H67.3178ZM70.9413 48.6886C71.2305 48.6886 71.4435 48.5582 71.6281 48.3517L71.556 48.6422H72.0341L72.3513 47.3922C72.3796 47.2826 72.3957 47.1817 72.3957 47.0764C72.3957 46.6429 72.1023 46.3862 71.544 46.3862C71.2546 46.3862 71.0015 46.4449 70.7847 46.5378L70.865 46.9585C71.0338 46.8869 71.2347 46.8366 71.4473 46.8366C71.7729 46.8366 71.9096 46.967 71.9096 47.1648C71.9096 47.2321 71.9015 47.2744 71.8855 47.3416L71.8734 47.3877C71.6846 47.3205 71.4715 47.2784 71.2386 47.2784C70.6923 47.2784 70.2945 47.5647 70.2945 48.0783C70.2945 48.4486 70.5759 48.6886 70.9413 48.6886ZM71.1302 48.3141C70.9215 48.3141 70.7928 48.2045 70.7928 48.0107C70.7928 47.7795 70.9895 47.611 71.3148 47.611C71.5037 47.611 71.6646 47.6531 71.7971 47.6951L71.7729 47.7919C71.7047 48.0654 71.4317 48.3141 71.1302 48.3141ZM74.0187 49.3156H74.5048L75.2441 46.4197H74.7581L74.6574 46.8112C74.5289 46.5627 74.3159 46.3733 73.9424 46.3733C73.3358 46.3733 72.7611 46.9501 72.7611 47.7373C72.7611 48.3265 73.1189 48.6886 73.5889 48.6886C73.8659 48.6886 74.0789 48.5497 74.2677 48.3433L74.0187 49.3156ZM73.7737 48.2549C73.4683 48.2549 73.2675 48.0404 73.2675 47.7035C73.2675 47.2067 73.6049 46.8112 73.9986 46.8112C74.3158 46.8112 74.537 47.0427 74.537 47.3668C74.537 47.8426 74.1633 48.2549 73.7737 48.2549ZM76.1079 48.6886C76.3768 48.6886 76.5818 48.5328 76.7508 48.3558L76.6783 48.6422H77.1643L77.7309 46.4197H77.2449L76.9235 47.6701C76.8392 47.9982 76.614 48.2254 76.3408 48.2254C76.1079 48.2254 75.9754 48.0993 75.9754 47.8761C75.9754 47.813 75.9873 47.7203 76.0033 47.6531L76.3209 46.4197H75.8349L75.5254 47.6319C75.4932 47.7625 75.4609 47.9058 75.4609 48.0236C75.4609 48.4319 75.7143 48.6886 76.1079 48.6886ZM78.438 46.0788H78.9601L79.0888 45.5947H78.5625L78.438 46.0788ZM77.7991 48.6422H78.2852L78.8558 46.4197H78.3698L77.7991 48.6422ZM80.7438 47.7163H82.2863C82.3426 47.5563 82.3793 47.3922 82.3793 47.2364C82.3793 46.7522 82.0735 46.3733 81.5313 46.3733C80.7922 46.3733 80.2817 47.0638 80.2817 47.7203C80.2817 48.3181 80.6554 48.6928 81.246 48.6928C81.6111 48.6928 81.8688 48.5582 82.0694 48.3855L81.8362 48.0614C81.656 48.2045 81.4991 48.2761 81.2943 48.2761C80.9365 48.2761 80.7476 48.0486 80.7438 47.7163ZM80.796 47.3668C80.9044 47.0342 81.1656 46.79 81.495 46.79C81.7881 46.79 81.9169 46.9837 81.9169 47.2152C81.9169 47.2784 81.9087 47.3331 81.8965 47.3668H80.796ZM84.3592 47.7163H85.902C85.9583 47.5563 85.9942 47.3922 85.9942 47.2364C85.9942 46.7522 85.6892 46.3733 85.1469 46.3733C84.4073 46.3733 83.8976 47.0638 83.8976 47.7203C83.8976 48.3181 84.2711 48.6928 84.8615 48.6928C85.2268 48.6928 85.4845 48.5582 85.6851 48.3855L85.4519 48.0614C85.2709 48.2045 85.1143 48.2761 84.9096 48.2761C84.5524 48.2761 84.3633 48.0486 84.3592 47.7163ZM84.4114 47.3668C84.5198 47.0342 84.7808 46.79 85.1102 46.79C85.4038 46.79 85.5326 46.9837 85.5326 47.2152C85.5326 47.2784 85.5245 47.3331 85.5122 47.3668H84.4114ZM87.2801 48.6928C87.6373 48.6928 87.8746 48.5497 88.0956 48.3393L87.8387 48.0067C87.6699 48.1623 87.5093 48.2549 87.2964 48.2549C87.0233 48.2549 86.7941 48.0486 86.7941 47.6993C86.7941 47.2279 87.1399 46.8154 87.5207 46.8154C87.7947 46.8154 87.9309 46.9585 88.0434 47.148L88.4209 46.8786C88.2766 46.609 88.0148 46.3733 87.5615 46.3733C86.8863 46.3733 86.3081 46.9754 86.3081 47.7035C86.3081 48.3096 86.7338 48.6928 87.2801 48.6928ZM89.5096 48.6928C90.1848 48.6928 90.7466 48.0698 90.7466 47.3922C90.7466 46.8029 90.3576 46.3733 89.7509 46.3733C89.0676 46.3733 88.5131 47.0007 88.5131 47.6783C88.5131 48.2633 88.9029 48.6928 89.5096 48.6928ZM89.5381 48.2509C89.216 48.2509 88.9958 48.0362 88.9958 47.6616C88.9958 47.2659 89.3049 46.8154 89.7224 46.8154C90.0445 46.8154 90.2655 47.0301 90.2655 47.4047C90.2655 47.8087 89.9475 48.2509 89.5381 48.2509ZM90.948 48.6422H91.434L91.7553 47.3922C91.8401 47.0638 92.0652 46.8366 92.3375 46.8366C92.5708 46.8366 92.7078 46.9625 92.7078 47.1857C92.7078 47.2489 92.6955 47.3373 92.6751 47.4089L92.362 48.6422H92.848L93.1538 47.4299C93.1856 47.2996 93.2174 47.1564 93.2174 47.0386C93.2174 46.6302 92.9646 46.3733 92.5708 46.3733C92.3017 46.3733 92.097 46.5293 91.9282 46.7058L92 46.4197H91.5139L90.948 48.6422ZM94.5833 48.6928C95.2585 48.6928 95.8212 48.0698 95.8212 47.3922C95.8212 46.8029 95.4314 46.3733 94.8247 46.3733C94.1421 46.3733 93.5876 47.0007 93.5876 47.6783C93.5876 48.2633 93.9774 48.6928 94.5833 48.6928ZM94.6118 48.2509C94.2906 48.2509 94.0696 48.0362 94.0696 47.6616C94.0696 47.2659 94.3794 46.8154 94.7969 46.8154C95.1182 46.8154 95.3392 47.0301 95.3392 47.4047C95.3392 47.8087 95.022 48.2509 94.6118 48.2509ZM96.0218 48.6422H96.5078L96.829 47.3922C96.9139 47.0638 97.1267 46.8366 97.3958 46.8366C97.6168 46.8366 97.7415 46.9625 97.7415 47.1857C97.7415 47.2489 97.7293 47.3373 97.713 47.4089L97.3958 48.6422H97.8818L98.2031 47.3922C98.2838 47.0638 98.5007 46.8366 98.7657 46.8366C98.9867 46.8366 99.1115 46.9625 99.1115 47.1857C99.1115 47.2489 99.0993 47.3373 99.083 47.4089L98.7657 48.6422H99.2518L99.5616 47.4299C99.5934 47.2996 99.6293 47.1564 99.6293 47.0386C99.6293 46.6344 99.3806 46.3733 98.999 46.3733C98.6573 46.3733 98.3882 46.5543 98.2031 46.8197C98.1305 46.5672 97.9381 46.3733 97.6249 46.3733C97.3558 46.3733 97.1707 46.525 97.0019 46.7058L97.0745 46.4197H96.5885L96.0218 48.6422ZM100.506 46.0788H101.028L101.157 45.5947H100.63L100.506 46.0788ZM99.8666 48.6422H100.353L100.923 46.4197H100.437L99.8666 48.6422ZM100.871 48.6422H102.711L102.819 48.2254H101.618L103.181 46.769L103.269 46.4197H101.482L101.377 46.8366H102.523L100.963 48.2929L100.871 48.6422ZM103.784 47.7163H105.326C105.382 47.5563 105.419 47.3922 105.419 47.2364C105.419 46.7522 105.113 46.3733 104.571 46.3733C103.832 46.3733 103.322 47.0638 103.322 47.7203C103.322 48.3181 103.695 48.6928 104.286 48.6928C104.651 48.6928 104.909 48.5582 105.109 48.3855L104.877 48.0614C104.696 48.2045 104.539 48.2761 104.334 48.2761C103.976 48.2761 103.787 48.0486 103.784 47.7163ZM103.835 47.3668C103.945 47.0342 104.206 46.79 104.535 46.79C104.828 46.79 104.957 46.9837 104.957 47.2152C104.957 47.2784 104.948 47.3331 104.936 47.3668H103.835ZM105.981 47.7118H106.25L106.877 45.8432L106.917 45.6958H106.347L106.307 45.8432L105.981 47.7118ZM105.611 48.6422H106.146L106.295 48.0654H105.757L105.611 48.6422Z" fill="#FEFEFE"/>
<path fill-rule="evenodd" clip-rule="evenodd" d="M79.7974 40.7301C78.6267 41.6678 77.2701 42.3069 75.8207 42.4485C74.5476 42.5721 73.4138 42.2628 72.6055 41.5131C71.2858 42.4793 69.5672 43.113 68.3126 43.2574C66.2311 43.5124 64.7723 42.8297 64.2427 41.2193C62.7838 42.9328 60.9346 44.208 58.937 44.5016C57.7477 44.6794 56.679 44.4476 55.8985 43.7673C55.1086 44.5171 54.2074 45.1227 53.3434 45.2641C51.364 45.5888 50.4999 44.0561 50.7602 41.8353C50.8252 41.3278 50.8996 40.8047 51.0298 40.2793C50.2769 41.7424 49.6264 43.1518 49.3569 43.7699C48.6136 45.4008 47.6845 46.2201 46.2535 46.4829C45.7054 46.5859 45.129 46.591 44.5809 46.5935C44.2744 46.5935 44.0327 46.4725 43.8562 46.2353C42.3879 47.2506 40.799 47.9717 39.4146 48.2552C37.3239 48.7215 35.9449 48.1983 35.196 46.9181C34.4395 45.6249 34.3133 43.5793 34.6481 41.0828C35.1309 37.5355 36.6141 33.6785 38.7176 30.6622C40.7858 27.6969 43.4566 25.5973 46.3093 25.3679C47.6567 25.2598 49.1431 25.5742 49.8775 26.6768C50.5279 26.311 51.1968 26.0689 51.8842 26.0172C53.148 25.9244 53.9844 26.9295 53.8078 28.4777C53.7892 28.632 53.7614 28.779 53.7334 28.9258C53.5755 29.6677 53.3434 30.5283 53.1204 31.3062C53.938 30.6674 54.7928 30.2345 55.6384 30.1599C57.0603 30.0388 57.8592 30.9482 57.9335 32.3806C59.4292 30.7006 61.2231 29.5467 63.1553 29.4076C65.0974 29.2815 66.5564 30.2266 67.1137 31.8963C68.6284 30.1544 70.5611 28.9672 72.6424 28.8639C73.8413 28.8046 75.2256 29.0133 75.8018 30.0105C76.9447 29.1603 78.2362 28.6297 79.6115 28.5779C81.0982 28.529 82.3157 29.0649 83.0683 30.0287C83.1148 29.8739 83.1613 29.7141 83.198 29.5596C83.3749 28.9233 83.6073 28.1093 83.6628 27.4624C83.6718 27.3519 83.6628 27.2383 83.6253 27.1406C83.3937 26.5041 83.6815 25.7416 84.2948 25.3785C85.1127 24.8915 86.0039 24.5873 86.9148 24.5849C88.1975 24.5849 89.1084 25.4478 89.0056 26.7979C88.9681 27.3929 88.7642 28.1786 88.5694 28.859C89.2103 28.5161 89.87 28.3049 90.5574 28.2946C92.2022 28.274 93.0291 29.2067 93.3634 30.4613C94.6176 29.1783 96.1514 28.3128 97.8239 28.3075C98.4273 28.3098 99.0128 28.3953 99.5429 28.6089C99.9424 28.4414 100.351 28.359 100.788 28.3618C101.587 28.3668 102.302 28.5909 103 28.9464C103.027 28.9567 103.045 28.9721 103.065 28.9824C103.334 28.2147 103.594 27.4497 103.873 26.6872C103.873 26.6715 103.873 26.6637 103.882 26.6537C104.096 26.0999 104.551 25.5973 105.053 25.2778C105.583 24.9587 106.195 24.8221 106.791 24.8785C107.626 24.9587 108.36 25.2289 109.011 25.726C109.067 25.7673 109.104 25.8035 109.151 25.8472C109.411 26.1101 109.578 26.4373 109.634 26.7953C109.634 26.8027 109.634 26.8106 109.634 26.821C109.681 27.0916 109.69 27.3543 109.671 27.6275C109.662 27.8978 109.643 28.1581 109.606 28.3848C109.504 28.9799 109.29 29.585 109.039 30.17C110.201 29.1551 111.594 28.5033 113.137 28.547C113.741 28.5623 114.326 28.6581 114.865 28.8718C115.246 28.7223 115.664 28.6551 116.101 28.6708C116.9 28.7017 117.634 28.9362 118.341 29.2968C118.684 29.4746 118.907 29.7423 118.982 30.0929C119.028 30.2371 119.037 30.3763 119.028 30.513C120.125 29.2171 122.141 28.6528 124.055 28.7454C125.151 28.7971 126.071 29.1886 126.378 30.2424C126.405 30.3454 126.424 30.4382 126.424 30.5436C126.424 31.4067 125.885 32.0045 125.124 32.4527C124.807 32.6405 124.417 32.6872 124.064 32.5944C124.938 33.6044 125.635 34.519 125.625 35.9071C125.625 37.2674 124.937 38.4391 123.878 39.2643C122.818 40.0904 121.388 40.5728 119.91 40.5497C118.925 40.5418 117.913 40.233 117.142 39.6764C116.417 40.1686 115.562 40.5342 114.717 40.5291C113.49 40.537 112.645 40.0291 112.189 39.2279C111.297 39.9727 110.294 40.5291 109.16 40.5857C109.142 40.5857 109.123 40.5885 109.095 40.5885C109.021 40.5885 108.956 40.5885 108.89 40.5885C107.794 40.6142 106.949 40.2432 106.41 39.6096C105.489 40.1942 104.411 40.6323 103.473 40.6529C102.581 40.6761 101.856 40.4183 101.345 39.9441C100.63 40.4492 99.8307 40.8073 99.0414 40.8382C97.8239 40.8795 96.9873 40.3695 96.551 39.5526C95.6589 40.3695 94.6273 40.9955 93.4939 41.1063C93.4751 41.1063 93.4564 41.1089 93.4286 41.1089C93.3544 41.1142 93.2892 41.1167 93.2239 41.119C91.5702 41.2041 90.6504 40.3901 90.2883 39.1715C89.0056 40.5033 87.4448 41.4489 85.7161 41.5646C85.0474 41.6112 84.4065 41.5391 83.812 41.3456C83.3749 41.5803 82.9012 41.7066 82.4086 41.748C81.647 41.8068 80.9312 41.6217 80.3084 41.2994C80.067 41.1731 79.8996 40.9825 79.7974 40.7301Z" fill="#AD3335"/>
<path fill-rule="evenodd" clip-rule="evenodd" d="M50.1374 36.0182C51.3731 33.9776 53.3896 31.3912 55.1924 31.2263C56.1956 31.1334 56.5488 31.8575 56.4093 32.9883C56.2516 34.2635 55.5733 36.139 55.2111 37.4687C54.9881 38.2878 54.7835 39.1405 54.6907 39.9598C54.6718 40.0861 54.5976 40.7379 54.7 40.7557C54.9692 40.7173 55.4431 40.1425 55.6384 39.9108C55.6384 39.9108 55.6384 39.9108 55.6384 39.9082C55.6293 39.6507 55.6477 39.3802 55.6755 39.1149C55.7963 38.0406 56.0791 37.0038 56.4933 36.0157C56.906 35.0307 57.4596 34.0965 58.1566 33.2255C59.4292 31.685 61.009 30.5615 62.7188 30.4275C64.791 30.2811 66.0641 31.6383 65.8317 34.006C65.6458 35.8584 64.7922 37.9183 63.5459 39.5683C62.2838 41.239 60.6004 42.5332 58.788 42.7833C57.5247 42.9587 56.4282 42.5619 55.9265 41.3971C55.2389 42.2729 54.1332 43.3576 53.2224 43.4966C51.94 43.698 51.5406 42.7111 51.6986 41.3097C51.8287 40.2173 52.0983 39.0425 52.4608 37.9635C52.8042 36.9892 53.1758 35.8173 53.3059 34.8382C53.3152 34.7121 53.3341 34.2871 53.1758 34.3023C52.5627 34.3691 51.401 36.2293 50.3326 38.2415C49.2548 40.2713 48.2514 42.4537 47.9817 43.0564C47.5173 44.1101 47.0618 44.4963 46.1423 44.6561C45.659 44.7413 45.1479 44.736 44.683 44.7311C44.6369 44.7311 44.5809 44.7311 44.5436 44.7335C44.5534 44.6767 44.5809 44.6201 44.6087 44.5635C44.841 44.0046 45.0642 43.4426 45.2872 42.8811C43.5959 44.6614 41.2172 45.9932 39.3218 46.3644C37.5838 46.7353 36.5036 46.2961 35.9487 45.2513C35.3887 44.1966 35.3261 42.5332 35.5958 40.4903C36.0043 37.4195 37.3004 33.9947 39.145 31.2907C40.9616 28.6286 43.3171 26.7128 45.8538 26.4913C47.1361 26.3806 49.0596 26.6357 48.8088 28.6682C48.6602 29.9486 47.6101 30.796 46.6902 31.3475C46.6435 31.3731 46.6067 31.399 46.5696 31.4247C46.5696 31.3759 46.56 31.3244 46.56 31.2699C46.4487 29.691 46.0583 28.6218 44.618 28.7661C43.0198 28.9257 41.6999 30.8318 40.7247 33.1096C39.7394 35.4126 39.0892 38.0637 38.8945 39.6507C38.5875 41.8971 38.9035 43.8548 40.9478 43.4735C42.9734 43.1076 45.2032 40.8896 46.6809 38.9499C47.2108 37.3578 47.6794 35.7564 48.1027 34.1608C48.5252 32.5674 48.9203 30.9738 49.2732 29.3843C49.2826 29.3071 49.3107 29.2348 49.3198 29.1602C49.3661 28.7971 49.301 28.5082 49.2268 28.1939C49.2081 28.158 49.2081 28.1197 49.1897 28.0834C49.2268 28.0627 49.2641 28.0372 49.2826 28.0137C49.9704 27.5242 50.6951 27.1637 51.4292 27.1069C52.0333 27.0552 52.4142 27.4471 52.3304 28.2017C52.3209 28.2818 52.3118 28.3539 52.284 28.431C52.1168 29.3147 51.7823 30.4275 51.5406 31.3113C51.0944 32.8777 50.6392 34.4467 50.1374 36.0182ZM116.928 37.7673C116.333 38.3855 115.311 39.1121 114.419 39.1121C113.137 39.1174 112.645 38.2748 112.681 37.1823C112.691 36.871 112.719 36.5384 112.756 36.2113C111.864 37.4299 110.405 39.0735 108.816 39.1458C108.742 39.1483 108.677 39.1483 108.612 39.1507C107.367 39.1715 106.763 38.4915 106.614 37.4505C105.806 38.2517 104.3 39.1715 103.213 39.1895C102.126 39.2204 101.513 38.6536 101.503 37.6667C100.853 38.437 99.7476 39.3285 98.7804 39.3569C97.4986 39.4008 97.0525 38.5298 97.1177 37.3833C97.1365 37.0562 97.1732 36.7059 97.2197 36.3605C96.2909 37.6745 94.7758 39.4627 93.1873 39.6041C93.1122 39.607 93.0478 39.6119 92.9826 39.6145C91.3191 39.6891 90.9203 38.4296 91.0222 36.9869C91.1152 35.9101 91.4495 34.8126 91.9233 33.8101C92.4069 32.7721 93.1832 31.6057 94.1348 30.7084C95.0881 29.8101 96.2256 29.1729 97.4521 29.1629C98.093 29.1655 98.716 29.2761 99.2175 29.6395C99.5519 29.3457 99.9792 29.2092 100.425 29.2092C101.02 29.2117 101.568 29.387 102.089 29.6547C102.126 29.6729 102.163 29.6935 102.2 29.7088C102.163 29.7422 102.144 29.776 102.116 29.8069C101.736 30.3194 101.21 31.6835 100.788 33.0812C100.365 34.4787 100.026 35.9175 99.9889 36.5589C99.9889 36.67 99.9702 37.1569 100.044 37.2059C100.342 37.1647 100.704 36.7934 100.918 36.5899C101.169 36.3351 101.494 36.0157 101.782 35.8069C101.81 35.714 101.819 35.6189 101.847 35.5131C101.875 35.3997 101.903 35.2862 101.94 35.1704C102.358 33.7408 102.802 32.3213 103.26 30.9068C103.713 29.5055 104.189 28.1065 104.681 26.7207C104.82 26.4063 105.09 26.1047 105.378 25.9219C105.676 25.739 106.019 25.6669 106.363 25.6954C106.967 25.752 107.469 25.9373 107.962 26.3109C108.045 26.4013 108.11 26.5119 108.129 26.6405C108.156 26.8699 108.166 27.0503 108.156 27.2847C108.147 27.4988 108.147 27.7021 108.101 27.9109C107.971 28.7352 107.552 29.642 107.162 30.4019C106.651 31.4581 105.926 32.4809 105.146 33.4057C105.137 33.4344 105.127 33.4623 105.127 33.4907C105.081 33.6662 105.034 33.8386 104.969 34.006C104.793 34.6629 104.44 35.8275 104.412 36.4612C104.412 36.5487 104.374 37.0562 104.458 37.1003C104.951 37.095 105.387 36.9377 105.797 36.6647C106.066 36.4794 106.345 36.2859 106.623 36.0981C106.809 34.707 107.542 32.99 108.63 31.6334C109.707 30.2902 111.148 29.3147 112.793 29.3535C113.415 29.3688 114.057 29.4926 114.577 29.8483C114.902 29.5752 115.32 29.4538 115.757 29.4692C116.362 29.4898 116.919 29.6755 117.449 29.9485C117.485 29.9667 117.523 29.9873 117.55 30.0025C117.523 30.036 117.504 30.0644 117.476 30.0954C117.104 30.5719 116.624 31.8664 116.25 33.1819C115.872 34.5068 115.562 35.8635 115.544 36.4765C115.544 36.5822 115.544 37.0458 115.618 37.0974C115.916 37.0694 116.278 36.724 116.481 36.5437C116.686 36.3351 117.365 35.6729 117.718 35.6782C117.876 35.6831 117.913 35.812 117.913 35.9381C117.913 36.0182 117.904 36.0981 117.895 36.173C118.257 36.9377 118.88 37.7341 119.864 37.793C120.756 37.8087 121.212 37.3578 121.221 36.5645C121.221 35.7863 120.301 35.0675 119.771 34.5086C119.298 33.9649 119.028 33.2745 119.037 32.5761C119.065 30.2938 121.574 29.4284 123.72 29.5235C124.25 29.5491 124.733 29.6189 124.872 30.1543C124.872 30.1598 124.872 30.1622 124.882 30.1677C124.882 30.1726 124.882 30.1779 124.882 30.1804C124.882 30.6701 124.529 30.9713 124.111 31.2189C124.083 31.2341 124.055 31.2494 124.036 31.2625C124.008 31.2445 123.99 31.2237 123.971 31.2031C123.711 30.9533 123.358 30.7162 122.977 30.7006C122.289 30.6726 122.01 31.0075 122.001 31.6051C122.001 31.9552 122.215 32.2721 122.447 32.5402C123.265 33.483 124.083 34.3076 124.073 35.5595C124.064 37.6796 121.871 39.1842 119.595 39.1428C118.545 39.1326 117.392 38.6457 116.928 37.7673ZM85.8278 32.4735C86.8781 31.01 88.5221 29.2117 90.1856 29.1807C91.7937 29.1523 92.0815 30.5566 91.9885 31.9042C91.8956 33.4597 91.1543 35.4179 90.0094 37.0281C88.8597 38.6432 87.2679 39.9131 85.4935 40.0191C84.7873 40.0679 84.0999 39.9417 83.5144 39.6198C83.1328 39.9933 82.6875 40.148 82.1852 40.1864C81.647 40.2251 81.1356 40.0732 80.6894 39.8413C80.6523 39.8233 80.615 39.805 80.5872 39.7872C80.6057 39.7535 80.6334 39.72 80.6616 39.6817C81.1167 38.9758 81.4329 38.1667 81.7025 37.3941C82.102 36.0672 82.5057 34.7386 82.9012 33.4136C83.2958 32.0904 83.7003 30.7703 84.0534 29.4436C84.2483 28.7121 84.5084 27.8489 84.5639 27.1069C84.5826 26.8105 84.5549 26.5246 84.4432 26.2595C84.4342 26.2285 84.4244 26.1976 84.4155 26.1666C84.4432 26.1488 84.4807 26.1308 84.5084 26.1125C85.1404 25.7363 85.8189 25.4866 86.525 25.4787C87.1472 25.4765 87.5745 25.8008 87.5191 26.476C87.4726 27.1431 87.1472 28.1993 86.9621 28.856C86.618 30.0644 86.2364 31.2729 85.8278 32.4735ZM72.401 37.9993C72.3917 37.7803 72.401 37.5586 72.4288 37.3345C72.5127 36.3453 72.7569 35.3961 73.1442 34.4929C73.5283 33.5978 74.0644 32.7464 74.7331 31.9605C75.9693 30.5719 77.5022 29.5827 79.2029 29.5133C81.2746 29.4362 82.5848 30.7368 82.4086 32.9343C82.2782 34.6525 81.4807 36.5424 80.2807 38.0328C79.0645 39.5435 77.428 40.6838 75.6255 40.8485C74.3153 40.9645 73.1723 40.5086 72.6613 39.3207C71.6948 40.5679 69.4371 41.4669 68.1265 41.6059C65.9154 41.8662 64.7259 40.8975 64.9862 38.3855C65.181 36.4302 66.0719 34.3239 67.374 32.6897C68.6642 31.0704 70.3754 29.9332 72.2246 29.8351C73.0884 29.7889 74.6495 29.7967 74.5383 31.0793C74.4548 32.0612 73.3303 32.7052 72.559 33.0063C72.5127 33.0221 72.4754 33.0398 72.4384 33.0555C72.4288 33.0142 72.4194 32.9731 72.4288 32.9292C72.3359 32.1434 72.1965 31.4787 71.3416 31.5279C70.2453 31.5946 69.4824 32.6608 68.9906 33.9235C68.4975 35.1907 68.2566 36.6543 68.1731 37.507C68.0896 38.4399 68.2197 39.6738 69.2883 39.5708C70.3754 39.465 71.5184 38.8649 72.401 37.9993ZM62.8396 34.261C62.9233 33.4265 62.9233 32.2056 61.957 32.2904C61.0464 32.3703 60.2521 33.6333 59.6804 35.0828C59.1092 36.5314 58.7248 38.171 58.6395 38.9806C58.5485 39.848 58.5748 41.024 59.5502 40.8975C60.4609 40.7795 61.2579 39.5042 61.8268 38.0686C62.3913 36.6448 62.7467 35.0445 62.8396 34.261ZM113.899 31.7699C113.741 31.2057 113.183 30.8632 112.571 30.8504C111.325 30.8243 110.275 33.1842 109.968 34.0704C109.736 34.7788 109.55 35.5595 109.522 36.3016C109.532 36.6056 109.569 37.1077 110.015 37.1077C110.48 37.1077 111.409 35.8762 111.65 35.5623C112.505 34.4339 113.369 33.0502 113.899 31.7699ZM105.647 31.7778C106.019 31.2394 106.354 30.6726 106.623 30.0979C106.977 29.4205 107.395 28.5495 107.506 27.8077C107.533 27.6093 107.561 27.3774 107.552 27.1688C107.552 27.0965 107.459 27.063 107.423 27.1274C107.367 27.2152 107.311 27.3106 107.264 27.4109C106.93 28.1811 106.623 28.9671 106.354 29.7658C106.103 30.4275 105.861 31.1029 105.647 31.7778ZM98.4926 31.6723C98.3531 31.0846 97.7962 30.7368 97.1919 30.7419C95.9467 30.7602 94.841 33.2771 94.5067 34.2199C94.2367 34.9724 94.0329 35.8016 93.9864 36.5797C93.9954 36.9019 94.0052 37.4299 94.4512 37.4119C94.9152 37.3941 95.8725 36.0644 96.1237 35.7244C97.0337 34.5059 97.9258 33.0271 98.4926 31.6723ZM84.3413 37.4452C84.3502 38.1461 85.1404 38.3829 85.7446 38.3471C86.525 38.3058 87.2679 37.2959 87.6585 36.6774C88.328 35.5879 88.792 34.2688 88.9967 33.0634C89.0334 32.8493 89.0611 32.6331 89.0798 32.4164C89.0986 32.0765 89.1173 31.4067 88.6525 31.4169C87.9749 31.435 86.2461 34.0395 85.902 34.5984C85.3263 35.4846 84.7498 36.4843 84.3413 37.4452ZM79.4259 33.0761C79.491 32.3031 79.4627 31.1726 78.515 31.2189C77.6048 31.2629 76.8555 32.4105 76.3224 33.733C75.7868 35.0612 75.4415 36.5662 75.3743 37.3114C75.3022 38.1146 75.3652 39.202 76.3316 39.1223C77.2419 39.0477 77.998 37.8952 78.5243 36.5822C79.0479 35.2774 79.3701 33.8027 79.4259 33.0761Z" fill="#201E1E"/>
<path d="M48.6045 28.5525C48.8018 26.9308 47.4985 26.3497 45.7516 26.5015C43.4104 26.705 41.0953 28.4692 39.2754 31.038C37.4251 33.6497 36.053 37.0423 35.6142 40.3464C35.3283 42.4989 35.4332 44.1209 36.0043 45.107C36.5762 46.0941 37.6366 46.431 39.2476 46.104C41.2045 45.7068 43.782 44.2674 45.4729 42.2886C45.2032 43.0231 44.9156 43.7521 44.618 44.4758C45.213 44.4836 45.6963 44.4664 46.0583 44.4039C47.0529 44.2318 47.4056 43.7727 47.7959 42.9042C48.9668 40.2767 50.0942 38.0784 51.0205 36.5257C51.9336 34.9947 52.6833 34.0951 53.0923 34.0524C53.3246 34.028 53.3526 34.4389 53.3152 34.707C53.2224 35.3509 52.981 36.4277 52.4792 37.8653C51.996 39.2848 51.7878 40.5583 51.717 41.1786C51.5372 42.7582 52.0888 43.4157 53.1389 43.255C53.9376 43.1323 55.0532 42.1546 55.8614 41.0571C56.2889 42.1984 57.2928 42.7388 58.7045 42.5462C60.3867 42.3168 62.0299 41.1025 63.2856 39.4884C64.5291 37.8897 65.4313 35.8567 65.6274 33.903C65.8584 31.5957 64.6231 30.2854 62.6075 30.4354C60.9902 30.556 59.4481 31.6026 58.1284 33.1867C57.4503 34.0425 56.8967 34.9662 56.4933 35.9358C56.0884 36.9087 55.8103 37.9293 55.694 38.9862C55.6615 39.2817 55.6477 39.5604 55.657 39.8233C55.6384 39.8413 55.6104 39.8621 55.6011 39.8773C55.2018 40.3642 54.858 40.7332 54.5883 40.7714C54.4026 40.7977 54.4294 40.2997 54.477 39.862C54.6057 38.6793 55.0062 37.3161 55.369 36.0619C55.7308 34.8098 56.1121 33.6584 56.2052 32.883C56.3447 31.6614 55.9169 31.1595 55.0809 31.2367C53.3803 31.3937 51.2062 33.952 49.6451 36.7834C50.3235 34.689 50.9081 32.7052 51.3363 31.1775C51.763 29.6548 52.0237 28.5756 52.0888 28.292C52.1076 28.2225 52.1187 28.1555 52.1261 28.0887C52.2022 27.3961 51.8565 27.0695 51.3177 27.1122C50.7229 27.1595 50.0632 27.4162 49.2268 28.0008C49.3477 28.3747 49.3758 28.666 49.3292 29.0265C49.3203 29.0958 49.301 29.163 49.2919 29.2554C48.9294 30.881 48.5286 32.5066 48.1028 34.1067C47.6737 35.7166 47.2012 37.3114 46.6809 38.8805C44.3115 42.0441 42.1085 43.2578 40.8456 43.4918C38.968 43.8399 38.3321 42.3342 38.6899 39.5477C38.9544 37.4859 39.6701 34.7793 40.7062 32.5555C41.7329 30.3532 43.0573 28.6473 44.5534 28.5008C45.9189 28.3668 46.4487 29.2506 46.5696 31.1055C47.703 30.4225 48.4767 29.6022 48.6045 28.5525ZM122.866 30.4973C123.2 30.5115 123.563 30.6775 123.934 31.0306C124.492 30.7006 124.668 30.407 124.668 30.0724C124.548 29.6808 124.278 29.5485 123.609 29.5183C121.491 29.4226 119.068 30.2811 119.047 32.4758C119.04 33.138 119.278 33.8076 119.743 34.346C120.45 35.0906 121.229 35.6704 121.221 36.4638C121.211 37.3784 120.644 37.8062 119.762 37.7905C118.768 37.7312 118.099 36.9893 117.671 36.0825C117.681 35.9974 117.686 35.9122 117.69 35.8325C117.695 35.7293 117.681 35.6788 117.606 35.6783C117.421 35.6763 117.039 35.9411 116.454 36.5104C116.092 36.8297 115.813 37.064 115.525 37.0925C115.33 37.1103 115.323 36.7137 115.33 36.3714C115.342 35.7117 115.663 34.3303 116.054 32.9962C116.443 31.6744 116.928 30.3915 117.281 29.9332C116.751 29.6601 116.222 29.4841 115.655 29.4642C115.191 29.4479 114.782 29.5929 114.475 29.8765C114.001 29.5208 113.397 29.3688 112.681 29.3508C111.26 29.3147 109.849 30.159 108.751 31.4272C107.638 32.712 106.828 34.4105 106.623 36.0492C106.363 36.2215 106.066 36.4277 105.75 36.6469C105.341 36.9146 104.895 37.0971 104.347 37.1029C104.161 37.1046 104.181 36.7137 104.198 36.3583C104.219 35.9154 104.607 34.4439 104.765 33.8799C104.829 33.6995 104.877 33.5242 104.913 33.3646C104.923 33.3311 104.932 33.2953 104.941 33.2565C105.313 32.8184 106.288 31.6207 106.967 30.2525C107.385 29.3974 107.776 28.5264 107.887 27.7897C107.933 27.5631 107.937 27.3541 107.943 27.1819C107.956 26.7744 107.915 26.5611 107.915 26.5454C107.905 26.4396 107.85 26.3497 107.785 26.2775C107.273 25.8964 106.772 25.7416 106.243 25.6954C105.973 25.6719 105.637 25.7111 105.332 25.9012C105.033 26.0873 104.793 26.3833 104.691 26.6484C104.189 28.0243 103.692 29.4242 103.241 30.8373C102.79 32.2501 102.349 33.6739 101.94 35.0884C101.913 35.2042 101.875 35.3173 101.838 35.4336C101.829 35.544 101.81 35.6576 101.782 35.7632C101.577 35.9023 101.281 36.1651 100.89 36.5589C100.528 36.9068 100.239 37.1647 99.9514 37.2058C99.7565 37.229 99.7557 36.817 99.7753 36.4564C99.812 35.7632 100.156 34.2994 100.592 32.893C101.029 31.4859 101.559 30.1343 101.931 29.642C101.41 29.3743 100.881 29.2067 100.314 29.2067C99.8585 29.2067 99.4401 29.3665 99.1246 29.673C98.6695 29.3124 98.0653 29.1613 97.3404 29.1655C95.8636 29.174 94.3525 30.194 93.1873 31.6693C92.0204 33.1463 91.1796 35.0884 91.0312 36.8811C90.9293 38.4011 91.3843 39.4673 92.8896 39.4008C92.9549 39.3979 93.0201 39.3955 93.0943 39.393C94.3297 39.2823 95.7706 38.0715 97.2939 35.8016C97.2286 36.1831 97.1528 36.84 97.1267 37.2752C97.0501 38.5813 97.6568 39.18 98.6785 39.1483C99.5706 39.1208 100.788 38.2287 101.522 37.2521C101.522 37.3013 101.513 37.3528 101.513 37.4016C101.457 38.512 102.107 39.0042 103.11 38.9807C103.966 38.9609 105.62 38.2051 106.586 37.1052C106.679 38.2208 107.228 38.9644 108.51 38.9449C108.574 38.9438 108.639 38.9449 108.713 38.9421C109.959 38.883 111.362 37.7882 112.821 35.6831C112.756 36.0439 112.693 36.6675 112.681 37.0798C112.646 38.3266 113.277 38.9075 114.317 38.9061C115.098 38.905 116.138 38.2621 116.872 37.4736C117.225 38.4012 118.415 38.9224 119.483 38.9396C121.76 38.9763 123.854 37.4713 123.86 35.4538C123.864 34.2252 123.043 33.4034 122.262 32.4966C121.955 32.1462 121.775 31.8369 121.779 31.497C121.785 30.8401 122.122 30.4653 122.866 30.4973ZM111.632 35.5182C110.869 36.5231 110.294 37.1067 109.894 37.1077C109.504 37.1092 109.327 36.809 109.309 36.1984C109.345 35.0652 109.763 33.6654 110.358 32.5555C110.952 31.4499 111.715 30.6281 112.468 30.6442C113.035 30.6563 113.722 30.9634 113.909 31.6772C113.481 32.7181 112.617 34.2458 111.632 35.5182ZM106.141 29.6263C106.41 28.8355 106.716 28.0474 107.069 27.2639C107.106 27.1611 107.162 27.0552 107.218 26.9679C107.33 26.8106 107.552 26.8881 107.543 27.063C107.561 27.2383 107.533 27.4679 107.506 27.7124C107.413 28.3796 107.042 29.217 106.614 30.0388C106.195 30.9173 105.666 31.7055 105.239 32.2672C105.518 31.3888 105.815 30.4869 106.141 29.6263ZM96.1139 35.6752C95.3246 36.7599 94.7293 37.3994 94.3395 37.4143C93.9391 37.4299 93.7728 37.1259 93.7728 36.4843C93.847 35.2916 94.311 33.7995 94.934 32.6126C95.5553 31.4272 96.3463 30.5393 97.09 30.5306C97.6657 30.524 98.3442 30.8322 98.5024 31.5716C98.0465 32.6767 97.1365 34.3023 96.1139 35.6752ZM84.0624 29.3535C83.6816 30.7523 83.2486 32.1886 82.8449 33.5503C82.4404 34.9169 82.0368 36.2063 81.7025 37.3087C81.3397 38.352 81.0332 39.0451 80.6523 39.6272C81.126 39.8826 81.6185 39.997 82.0922 39.9648C82.6035 39.9303 83.0406 39.7639 83.4116 39.3748C83.9784 39.7122 84.6846 39.8453 85.4005 39.8001C87.0355 39.6963 88.584 38.527 89.7395 36.9662C90.8885 35.4149 91.664 33.4748 91.7749 31.7982C91.8589 30.52 91.6167 29.1556 90.0739 29.1835C88.783 29.2067 87.1562 30.3892 85.3818 33.0502C85.9485 31.381 86.4182 29.8877 86.7476 28.7248C87.0779 27.5616 87.2883 26.7256 87.3152 26.365C87.3625 25.7033 86.9246 25.4754 86.4133 25.4788C85.8278 25.4828 85.1779 25.667 84.453 26.0998C84.5639 26.3833 84.5924 26.6872 84.5737 26.9937C84.537 27.5861 84.3413 28.2971 84.0624 29.3535ZM88.9967 32.9627C88.7643 34.2896 88.2587 35.62 87.6495 36.6208C87.0322 37.6344 86.2926 38.3158 85.6419 38.352C84.917 38.3929 84.1178 38.0922 84.1276 37.3292C84.5639 36.3065 85.4576 34.7672 86.3391 33.4907C87.2133 32.2244 88.1046 31.2091 88.5596 31.1981C89.0423 31.186 89.1214 31.7469 89.0896 32.3084C89.0758 32.5508 89.0334 32.777 88.9967 32.9627ZM74.7053 31.922C74.055 32.6975 73.5245 33.5342 73.1442 34.4183C72.7627 35.3067 72.5269 36.2429 72.4384 37.2163C72.4152 37.4666 72.401 37.7032 72.4194 37.9272C71.4995 38.8419 70.31 39.469 69.1674 39.581C68.1547 39.6802 67.8267 38.6557 67.9501 37.4069C68.1333 35.5517 68.5678 34.0417 69.149 32.9883C69.7294 31.9368 70.4775 31.3422 71.2581 31.296C72.0013 31.2519 72.2987 31.6335 72.4288 32.7849C73.4696 32.3754 74.2723 31.7327 74.3431 30.9713C74.4209 30.1353 73.7019 29.7548 72.113 29.8404C70.4037 29.9326 68.7219 30.9849 67.4391 32.5428C66.1387 34.1224 65.2045 36.1963 64.9953 38.2646C64.7581 40.612 65.7933 41.6269 68.043 41.374C69.371 41.225 71.7414 40.2792 72.6056 38.9832C73.0238 40.1607 74.0734 40.7527 75.5327 40.6219C77.2051 40.4719 78.8063 39.4054 80.0204 37.9452C81.2225 36.4996 82.0588 34.6426 82.204 32.8315C82.3752 30.6936 81.1076 29.4383 79.0911 29.5183C77.4834 29.5823 75.9786 30.4973 74.7053 31.922ZM79.4352 32.9627C79.3391 34.083 78.95 35.5943 78.3849 36.8322C77.8166 38.0779 77.056 39.0646 76.22 39.1327C75.3185 39.2062 75.071 38.3808 75.1702 37.211C75.2662 36.0751 75.6541 34.5275 76.2385 33.2693C76.8248 32.008 77.5951 31.0317 78.4224 30.9919C79.305 30.9496 79.5339 31.8109 79.4352 32.9627ZM62.8489 34.1376C62.7205 35.3487 62.2713 36.9837 61.6689 38.3418C61.0633 39.7067 60.275 40.8015 59.439 40.9104C58.5375 41.0281 58.2946 40.1476 58.4258 38.883C58.5544 37.6461 59.0151 35.9663 59.6338 34.5832C60.2508 33.205 61.0555 32.1214 61.8828 32.048C62.7745 31.9692 62.9808 32.8934 62.8489 34.1376Z" fill="#FEFEFE"/>
<path fill-rule="evenodd" clip-rule="evenodd" d="M5.98914 45.4429C31.3983 65.2604 54.1177 74.1442 74.1469 72.0941C87.5843 71.4442 106.336 66.5089 130.404 57.2877C152.939 49.3452 170.538 48.1165 183.196 53.6019C165.601 51.8151 148.41 53.5195 131.873 61.109C114.149 69.5909 98.8196 74.902 85.8849 77.0422C72.6808 79.3635 56.3227 76.4074 36.8105 68.1733C25.1421 62.5572 14.8683 54.9806 5.98914 45.4429Z" fill="#AD3335"/>
<path fill-rule="evenodd" clip-rule="evenodd" d="M5.07391 47.8661C3.98969 56.9487 3.44769 61.49 3.44769 61.49C39.8962 88.1983 73.3938 93.0837 103.941 76.1448C67.2504 86.5519 34.2949 77.1257 5.07391 47.8661Z" fill="#FFF212" stroke="#FFFF00" stroke-width="0.0846" stroke-miterlimit="22.9256"/>
<path fill-rule="evenodd" clip-rule="evenodd" d="M184.569 56.9869C185.79 58.3706 185.612 59.9644 184.036 61.7687C183.803 61.3331 178.919 60.5484 169.384 59.4148C161.519 58.7295 152.502 59.5422 142.333 61.8527C136.756 63.0708 127.598 66.0761 114.859 70.8689C129.908 63.4452 143.331 58.6901 155.13 56.6039C164.983 54.7691 174.795 54.8967 184.569 56.9869Z" fill="#FFF212" stroke="#FFFF00" stroke-width="0.0846" stroke-miterlimit="22.9256"/>
<defs>
<linearGradient id="paint0_linear" x1="69.2835" y1="37.3339" x2="140.37" y2="37.3339" gradientUnits="userSpaceOnUse">
<stop stop-color="#D29A3E"/>
<stop offset="0.501961" stop-color="#FEFEFE"/>
<stop offset="1" stop-color="#D29A3E"/>
</linearGradient>
</defs>
</svg>
